<svg xmlns="http://www.w3.org/2000/svg" width="48" height="48" viewBox="0 0 48 48">
  <g id="Group_45245" data-name="Group 45245" transform="translate(-1124 -533)">
    <rect id="Rectangle_10570" data-name="Rectangle 10570" width="48" height="48" transform="translate(1124 533)" fill="none"/>
    <g id="clone-duotone" transform="translate(1131.97 540.97)">
      <path id="Path_63699" data-name="Path 63699" d="M3,24.011a3,3,0,0,1-3-3V3A3,3,0,0,1,3,0H6V13.006a5.008,5.008,0,0,0,5,5H24.011v3a3,3,0,0,1-3,3Z" transform="translate(0 8.004)" fill="#fea403" opacity="0.4"/>
      <path id="Path_63700" data-name="Path 63700" d="M24.011,3V21.01a3,3,0,0,1-3,3H3a3,3,0,0,1-3-3V3A3,3,0,0,1,3,0H21.01A3,3,0,0,1,24.011,3Z" transform="translate(8.004 0)" fill="#fea403"/>
    </g>
  </g>
</svg>
