<svg xmlns="http://www.w3.org/2000/svg" width="27.965" height="37.287" viewBox="0 0 27.965 37.287">
  <g id="file-alt-duotone" transform="translate(0 0)">
    <path id="Path_63718" data-name="Path 63718" d="M27.965,9.322H19.809a1.165,1.165,0,0,1-1.165-1.165V0H1.748A1.743,1.743,0,0,0,0,1.739v33.8a1.743,1.743,0,0,0,1.739,1.748H26.217a1.743,1.743,0,0,0,1.748-1.739Zm-6.991,17.77a.874.874,0,0,1-.874.874H7.865a.874.874,0,0,1-.874-.874v-.583a.874.874,0,0,1,.874-.874H20.1a.874.874,0,0,1,.874.874Zm0-4.661a.874.874,0,0,1-.874.874H7.865a.874.874,0,0,1-.874-.874v-.583a.874.874,0,0,1,.874-.874H20.1a.874.874,0,0,1,.874.874Zm0-4.661a.874.874,0,0,1-.874.874H7.865a.874.874,0,0,1-.874-.874v-.583a.874.874,0,0,1,.874-.874H20.1a.874.874,0,0,1,.874.874Z" transform="translate(0 0)" fill="#fea403" opacity="0.4"/>
    <path id="Path_63719" data-name="Path 63719" d="M116.464,7.647,109.334.51A1.748,1.748,0,0,0,108.1,0h-.444V8.156a1.165,1.165,0,0,0,1.165,1.165h8.157V8.877a1.741,1.741,0,0,0-.51-1.231Zm-7.355,17.988H96.874a.874.874,0,0,0-.874.874v.583a.874.874,0,0,0,.874.874h12.235a.874.874,0,0,0,.874-.874v-.583A.874.874,0,0,0,109.109,25.635Zm0-4.661H96.874a.874.874,0,0,0-.874.874v.583a.874.874,0,0,0,.874.874h12.235a.874.874,0,0,0,.874-.874v-.583A.874.874,0,0,0,109.109,20.974Zm0-4.661H96.874a.874.874,0,0,0-.874.874v.583a.874.874,0,0,0,.874.874h12.235a.874.874,0,0,0,.874-.874v-.583A.874.874,0,0,0,109.109,16.313Z" transform="translate(-89.009 0)" fill="#fea403"/>
  </g>
</svg>
