<svg xmlns="http://www.w3.org/2000/svg" xmlns:xlink="http://www.w3.org/1999/xlink" width="30" height="30" viewBox="0 0 30 30">
  <defs>
    <linearGradient id="linear-gradient" x1="0.425" y1="-1.129" x2="0.5" y2="1" gradientUnits="objectBoundingBox">
      <stop offset="0" stop-color="#f30072"/>
      <stop offset="0.453" stop-color="#ee9700"/>
      <stop offset="0.747" stop-color="#e94750"/>
      <stop offset="1" stop-color="#e50097"/>
    </linearGradient>
  </defs>
  <g id="Group_42764" data-name="Group 42764" transform="translate(-141.348 -1964.348)">
    <circle id="Ellipse_297" data-name="Ellipse 297" cx="15" cy="15" r="15" transform="translate(141.348 1964.348)" fill="url(#linear-gradient)"/>
    <g id="instagram_1_" data-name="instagram (1)" transform="translate(148.844 1971.843)">
      <path id="Path_1555" data-name="Path 1555" d="M15.56,4.586A5.729,5.729,0,0,0,15.2,2.692a3.825,3.825,0,0,0-.9-1.382,3.826,3.826,0,0,0-1.382-.9A5.728,5.728,0,0,0,11.021.047C10.189.009,9.923,0,7.8,0S5.418.009,4.586.047A5.73,5.73,0,0,0,2.692.41a3.825,3.825,0,0,0-1.382.9,3.825,3.825,0,0,0-.9,1.382A5.729,5.729,0,0,0,.047,4.586C.009,5.418,0,5.684,0,7.8s.009,2.385.047,3.218A5.728,5.728,0,0,0,.41,12.915a3.824,3.824,0,0,0,.9,1.382,3.824,3.824,0,0,0,1.382.9,5.726,5.726,0,0,0,1.894.363c.832.038,1.1.047,3.217.047s2.385-.009,3.217-.047a5.727,5.727,0,0,0,1.894-.363A3.99,3.99,0,0,0,15.2,12.915a5.727,5.727,0,0,0,.363-1.894c.038-.832.047-1.1.047-3.217S15.6,5.418,15.56,4.586Zm-1.4,6.371a4.318,4.318,0,0,1-.269,1.449,2.584,2.584,0,0,1-1.481,1.481,4.318,4.318,0,0,1-1.449.269c-.823.038-1.07.045-3.153.045s-2.331-.008-3.153-.045A4.319,4.319,0,0,1,3.2,13.887a2.418,2.418,0,0,1-.9-.584,2.417,2.417,0,0,1-.584-.9,4.318,4.318,0,0,1-.269-1.449c-.038-.823-.045-1.07-.045-3.153s.008-2.331.045-3.153A4.321,4.321,0,0,1,1.72,3.2,2.419,2.419,0,0,1,2.3,2.3a2.416,2.416,0,0,1,.9-.584A4.317,4.317,0,0,1,4.65,1.451c.823-.038,1.07-.045,3.153-.045h0c2.084,0,2.331.008,3.153.046a4.318,4.318,0,0,1,1.449.269,2.42,2.42,0,0,1,.9.584,2.416,2.416,0,0,1,.584.9,4.314,4.314,0,0,1,.269,1.449c.038.823.045,1.07.045,3.153s-.008,2.331-.045,3.153Zm0,0" transform="translate(0 0)" fill="#fff"/>
      <path id="Path_1556" data-name="Path 1556" d="M128.546,124.539a4.007,4.007,0,1,0,4.007,4.007A4.007,4.007,0,0,0,128.546,124.539Zm0,6.609a2.6,2.6,0,1,1,2.6-2.6A2.6,2.6,0,0,1,128.546,131.148Zm0,0" transform="translate(-120.743 -120.743)" fill="#fff"/>
      <path id="Path_1557" data-name="Path 1557" d="M363.8,89.562a.936.936,0,1,1-.936-.937A.936.936,0,0,1,363.8,89.562Zm0,0" transform="translate(-350.897 -85.924)" fill="#fff"/>
    </g>
  </g>
</svg>
