<svg xmlns="http://www.w3.org/2000/svg" width="40" height="40" viewBox="0 0 40 40">
  <g id="Group_45234" data-name="Group 45234" transform="translate(-911 -2317)">
    <circle id="Ellipse_678" data-name="Ellipse 678" cx="20" cy="20" r="20" transform="translate(911 2317)" fill="#fea403"/>
    <g id="Group_45229" data-name="Group 45229" transform="translate(61 -358)">
      <g id="paper-plane-duotone" transform="translate(862 2685)">
        <path id="Path_68512" data-name="Path 68512" d="M134.848,115.751l2.959,3.663a.947.947,0,0,0,1.677-.623v-5.111l-11.058-9.973a.237.237,0,0,0-.339.327l8.884,10.824Z" transform="translate(-124.337 -99.555)" fill="#fff" opacity="0.4"/>
        <path id="Path_68513" data-name="Path 68513" d="M-.006,1.1,2.835,18.148a.95.95,0,0,0,1.3.718L12.615,15.3,3.73,4.478a.237.237,0,0,1,.339-.327l11.059,9.973L19.6,12.381a.947.947,0,0,0,.087-1.7L1.4.126A.947.947,0,0,0-.006,1.1Z" transform="translate(0.02 0.001)" fill="#fff"/>
      </g>
    </g>
  </g>
</svg>
