<svg xmlns="http://www.w3.org/2000/svg" width="30" height="30" viewBox="0 0 30 30">
  <g id="Group_42765" data-name="Group 42765" transform="translate(-190 -1963)">
    <circle id="Ellipse_295" data-name="Ellipse 295" cx="15" cy="15" r="15" transform="translate(190 1963)" fill="#00acee"/>
    <g id="twitter" transform="translate(196.75 1971.25)">
      <g id="Group_1" data-name="Group 1" transform="translate(0)">
        <path id="Path_1" data-name="Path 1" d="M16.688,49.605a7.133,7.133,0,0,1-1.971.54,3.4,3.4,0,0,0,1.505-1.891,6.837,6.837,0,0,1-2.169.828,3.421,3.421,0,0,0-5.918,2.339,3.523,3.523,0,0,0,.079.78,9.683,9.683,0,0,1-7.052-3.578A3.422,3.422,0,0,0,2.213,53.2a3.379,3.379,0,0,1-1.546-.421v.038a3.437,3.437,0,0,0,2.741,3.362,3.415,3.415,0,0,1-.9.113,3.025,3.025,0,0,1-.648-.058,3.454,3.454,0,0,0,3.2,2.383A6.874,6.874,0,0,1,.819,60.07,6.408,6.408,0,0,1,0,60.023a9.631,9.631,0,0,0,5.248,1.535,9.67,9.67,0,0,0,9.737-9.735c0-.151-.005-.3-.013-.442A6.825,6.825,0,0,0,16.688,49.605Z" transform="translate(0 -48)" fill="#fff"/>
      </g>
    </g>
  </g>
</svg>
