<svg xmlns="http://www.w3.org/2000/svg" width="48" height="48" viewBox="0 0 48 48">
  <g id="Group_41515" data-name="Group 41515" transform="translate(-371.033 -70.033)">
    <rect id="Rectangle_10593" data-name="Rectangle 10593" width="48" height="48" transform="translate(371.033 70.033)" fill="none"/>
    <g id="question-circle-duotone" transform="translate(375.082 74.082)">
      <path id="Path_63724" data-name="Path 63724" d="M27.95,8A19.95,19.95,0,1,0,47.9,27.95,19.951,19.951,0,0,0,27.95,8Zm0,33.948a3.7,3.7,0,1,1,3.7-3.7A3.7,3.7,0,0,1,27.95,41.948Zm3.218-10.565v.107a.965.965,0,0,1-.965.965H25.7a.965.965,0,0,1-.965-.965v-.322c0-3.3,2.5-4.623,4.4-5.684,1.623-.91,2.618-1.528,2.618-2.735,0-1.594-2.033-2.655-3.676-2.655-2.187,0-3.173,1.057-4.609,2.879a.965.965,0,0,1-1.341.171l-2.791-2.112a.965.965,0,0,1-.218-1.308A10.428,10.428,0,0,1,28.486,14.6c4.532,0,9.374,3.54,9.374,8.205C37.86,29,31.168,29.093,31.168,31.383Z" transform="translate(-8 -8)" fill="#fea403" opacity="0.4"/>
      <path id="Path_63725" data-name="Path 63725" d="M153.436,109.588a3.639,3.639,0,1,0,3.847,3.633A3.745,3.745,0,0,0,153.436,109.588ZM153.993,90a10.994,10.994,0,0,0-9.746,5.036.914.914,0,0,0,.227,1.283l2.9,2.078a1.044,1.044,0,0,0,1.394-.168c1.494-1.789,2.518-2.827,4.792-2.827,1.708,0,3.822,1.038,3.822,2.607,0,1.185-1.034,1.79-2.721,2.686-1.967,1.038-4.57,2.334-4.57,5.577v.316a.977.977,0,0,0,1,.948h4.683a.977.977,0,0,0,1-.948v-.105c0-2.248,6.957-2.344,6.957-8.425C163.737,93.475,158.7,90,153.993,90Z" transform="translate(-133.519 -83.143)" fill="#fea403"/>
    </g>
  </g>
</svg>
