<svg xmlns="http://www.w3.org/2000/svg" width="48" height="48" viewBox="0 0 48 48">
  <g id="Group_41517" data-name="Group 41517" transform="translate(-166.819 -72.819)">
    <g id="life-ring-duotone_1_" data-name="life-ring-duotone (1)" transform="translate(171.008 77.008)">
      <path id="Path_63726" data-name="Path 63726" d="M30.666,20.675l-.033-.014Zm-5.321-.16a7.708,7.708,0,0,1,4.879,0l8.946-8.946a19.809,19.809,0,0,0-22.765,0Zm5.485.233.042.018Zm.2.089.037.017ZM22.213,33.056l-.015-.017Zm-.44-.508.017.021Zm.132.16.028.033-.028-.034Zm.139.16.029.032ZM32.867,22.043l.032.029ZM21.514,32.2l-.008-.012ZM31.632,21.154l.027.015Zm.912.621.021.017Zm.508.44-.017-.015Zm-.316-.284L32.7,21.9Zm-.927-.673.038.023Zm.374.247.014.01Zm-.16-.108-.034-.023Zm-.776-.454-.008,0Zm-9.874,2.629.022-.034A.136.136,0,0,1,21.375,23.573Zm-.116.182.023-.037Zm-.1.18.015-.026ZM20.946,24.316Zm.829-1.292L21.792,23Zm.16-.194-.028.033a.115.115,0,0,1,.025-.03Zm-.426.55.008-.012ZM20.855,24.5l-.016.034a.15.15,0,0,1,.013-.034Zm.431,7.349-.023-.037Zm-.341-.6v0Zm.225.411-.015-.026Zm.208.336.022.034A.241.241,0,0,0,21.375,32Zm-.543-.967.016.034A.329.329,0,0,0,20.835,31.03Zm-.16-6.127a.083.083,0,0,1-.013.03A.071.071,0,0,0,20.675,24.9Zm.087-.206-.018.04c.01-.013.01-.026.018-.04Zm-.018,6.133.018.04a.249.249,0,0,0-.017-.04Zm-.08-.2.013.03a.174.174,0,0,0-.014-.03ZM34.4,23.909l.015.026ZM33.5,32.9l.029-.032Zm-.125.137-.015.017Zm-.015-10.521.015.017Zm.28,10.224.028-.033A.171.171,0,0,1,33.636,32.736Zm.16-9.715L33.779,23Zm0,9.521-.017.021Zm-.132-9.683-.028-.033.028.035Zm-.139-.16-.029-.032Zm.529.667.008.012Zm.008,8.821-.008.012Zm5.1-20.619.32.228Zm-4.36,19.3.018-.04A.338.338,0,0,1,34.805,30.87Zm.087-.206.013-.03a.08.08,0,0,0-.012.03Zm-.268.588v0ZM34.193,32l-.022.034Zm.116-.182-.023.037Zm.108-.18-.015.026Zm.3-.569.016-.034ZM43.2,15.34q-.113-.14-.228-.276Q43.084,15.2,43.2,15.34ZM42.92,15l-.24-.28C42.76,14.818,42.841,14.912,42.92,15Zm.549.679-.22-.28q.112.141.22.282Zm.268.355c-.073-.1-.146-.195-.22-.292.073.1.147.2.22.3Zm-9.544,7.536-.022-.034Zm5.333-11.742q.148.109.292.22Q39.676,11.94,39.526,11.831Zm.977.768q-.137-.115-.277-.228.141.113.28.228Zm-.338-.28q-.139-.112-.28-.221Zm.679.57q-.139-.122-.28-.24.14.117.279.24ZM34.823,24.737l-.018-.04A.338.338,0,0,1,34.823,24.737ZM22.072,22.672l-.029.032Zm12.661,1.866-.016-.034A.334.334,0,0,0,34.733,24.538Zm9.039-8.451c.08.1.152.209.227.315-.076-.105-.151-.21-.228-.315Zm-9.486,7.631.023.037Zm6.592-10.8a19.877,19.877,0,0,1,1.768,1.769A19.984,19.984,0,0,0,40.878,12.92ZM34.9,24.934l-.013-.03A.1.1,0,0,0,34.9,24.934ZM44,39.166A19.809,19.809,0,0,0,44,16.4l-8.946,8.944a7.708,7.708,0,0,1,0,4.879ZM34.627,24.32ZM24.935,34.9l-.033-.014Zm-.2-.08-.042-.018Zm-.423-.2.008,0Zm8.741-1.271-.017.015Zm-1.027.819-.034.023Zm.16-.108.014-.01Zm.358-.267.021-.017Zm.32-.271L32.9,33.5Zm-.128.111-.034.028Zm-8.2,1.094-.037-.017ZM23.022,33.8,23,33.779Zm-.32-.271L22.67,33.5Zm-.5-10.993.015-.017Zm.32,10.823.017.015Zm1.24.954-.038-.023Zm.181.108-.027-.015Zm6.288.639a7.708,7.708,0,0,1-4.879,0L16.4,44a19.809,19.809,0,0,0,22.765,0Zm-6.687-.882.034.023Zm-.16-.108-.014-.01ZM40.564,42.92q.141-.119.28-.24ZM44,39.166c-.074.106-.15.211-.227.316C43.848,39.376,43.924,39.272,44,39.166ZM40.228,43.2q.139-.113.277-.228Q40.368,43.084,40.228,43.2Zm-.345.273.28-.221-.28.217Zm3.854-3.948q-.109.148-.22.292Q43.628,39.676,43.737,39.526Zm-.817,1.038-.24.28C42.76,40.75,42.841,40.656,42.92,40.564Zm.276-.334q-.113.139-.228.277l.232-.28Zm.052-.065q.111-.139.221-.28l-.221.28Zm-12-5.542-.008,0Zm-.423.2.042-.018Zm.983-.514.038-.023Zm-.784.424.037-.017Zm.6-.32.027-.015Zm11.015,6.461a19.885,19.885,0,0,1-1.769,1.769,19.884,19.884,0,0,0,1.769-1.766Zm-3.166,2.892-.32.228q.163-.109.32-.224Zm-8.816-8.874-.033.014Zm8.86,8.844q.148-.109.292-.22Q39.676,43.628,39.526,43.737Zm-16.694-10.1.034.028ZM12.921,14.69A19.875,19.875,0,0,1,14.69,12.92a19.982,19.982,0,0,0-1.768,1.769Zm2.419-2.316q-.139.113-.277.228.138-.117.277-.229ZM22.529,22.2l-.017.015Zm.33-.293-.034.028ZM16.086,11.8l.32-.228Q16.243,11.682,16.086,11.8Zm6.917,10,.021-.017ZM15.685,12.1q-.141.109-.282.221Q15.544,12.208,15.685,12.1Zm.062-.047q.145-.112.292-.22l-.292.217ZM22.7,22.043l-.032.029Zm1.8-1.192.037-.017Zm-.18.089-.008,0Zm.374-.177.042-.018Zm.205-.086.033-.014Zm-1.363.719.034-.023Zm.4-.247-.027.015Zm-.568.364.014-.01Zm.35-.233.038-.023ZM15.063,42.968q.138.115.277.228Q15.2,43.084,15.063,42.968Zm-2.691-2.741q.113.139.228.277-.115-.137-.228-.277Zm.276.336.24.28C12.808,40.75,12.727,40.656,12.648,40.564Zm-.817-1.038q.109.148.22.292Q11.94,39.676,11.831,39.526Zm.268.355q.109.144.221.284-.112-.141-.221-.282Zm2.627,2.8q.139.122.28.24-.141-.115-.28-.237Zm1.022.844q.145.112.292.22ZM16.4,44l-.32-.228Zm-1-.751.28.221ZM11.8,39.481c-.08-.1-.152-.209-.227-.316C11.649,39.272,11.72,39.376,11.8,39.481Zm.8-24.418q-.115.137-.228.276Q12.484,15.2,12.6,15.064Zm-.768.978c.072-.1.145-.2.219-.292C11.977,15.844,11.9,15.941,11.832,16.042Zm.488-.639q-.112.139-.22.28Q12.208,15.544,12.32,15.4Zm.569-.679-.24.28c.078-.093.159-.186.24-.279Zm1.837-1.837q.139-.122.28-.24-.141.12-.28.242ZM14.69,42.645a19.884,19.884,0,0,1-1.769-1.769,19.884,19.884,0,0,0,1.769,1.772Zm5.825-12.422a7.708,7.708,0,0,1,0-4.879L11.569,16.4a19.809,19.809,0,0,0,0,22.765ZM11.8,16.085l-.227.314q.109-.156.224-.312Z" transform="translate(-7.972 -7.972)" fill="#fea403" opacity="0.4"/>
      <path id="Path_63727" data-name="Path 63727" d="M76.255,66.641l8.859-8.855A19.727,19.727,0,0,0,80.327,53l-8.855,8.859A7.614,7.614,0,0,1,76.255,66.641Zm-14.4,4.831L53,80.331a19.726,19.726,0,0,0,4.785,4.785l8.856-8.862A7.614,7.614,0,0,1,61.859,71.472ZM53,57.789l8.859,8.859a7.614,7.614,0,0,1,4.785-4.785L57.786,53A19.727,19.727,0,0,0,53,57.786ZM71.472,76.255l8.859,8.859a19.727,19.727,0,0,0,4.785-4.785l-8.862-8.856A7.614,7.614,0,0,1,71.472,76.255Z" transform="translate(-49.245 -49.245)" fill="#fea403"/>
    </g>
    <rect id="Rectangle_10594" data-name="Rectangle 10594" width="48" height="48" transform="translate(166.819 72.819)" fill="none"/>
  </g>
</svg>
